<?xml version="1.0" standalone="no"?>
<!DOCTYPE svg PUBLIC "-//W3C//DTD SVG 20010904//EN"
 "http://www.w3.org/TR/2001/REC-SVG-20010904/DTD/svg10.dtd">
<svg version="1.0" xmlns="http://www.w3.org/2000/svg"
 width="960.000000pt" height="960.000000pt" viewBox="0 0 960.000000 960.000000"
 preserveAspectRatio="xMidYMid meet">
<metadata>
Created by potrace 1.16, written by Peter Selinger 2001-2019
</metadata>
<g transform="translate(0.000000,960.000000) scale(0.100000,-0.100000)"
fill="#e4e4e4" stroke="none">
<path d="M4669 7900 c-322 -58 -564 -228 -797 -560 -144 -205 -204 -291 -229
-325 -16 -22 -83 -116 -150 -210 -66 -93 -206 -291 -311 -440 -106 -148 -197
-277 -202 -285 -6 -8 -44 -62 -85 -120 -41 -58 -143 -202 -226 -320 -84 -118
-164 -231 -179 -250 -14 -19 -45 -62 -68 -95 -23 -33 -54 -78 -70 -100 -16
-22 -134 -188 -262 -370 -205 -290 -308 -435 -458 -645 -21 -30 -117 -165
-212 -300 -162 -230 -218 -307 -288 -405 -109 -152 -204 -289 -209 -301 -4
-12 113 -14 848 -12 l853 3 92 130 c51 72 107 150 124 175 17 25 87 124 155
220 68 96 170 240 227 320 56 80 134 190 173 245 39 55 116 163 170 240 54 77
142 201 195 275 53 74 115 162 138 195 23 33 54 78 70 100 83 117 287 405 587
830 253 359 258 366 271 353 6 -7 86 -123 177 -258 90 -135 207 -308 260 -385
52 -77 131 -194 176 -260 254 -375 585 -853 643 -930 21 -27 38 -52 38 -55 0
-3 -449 -3 -997 -2 l-998 4 -234 -324 c-129 -177 -269 -370 -312 -428 -42 -58
-111 -152 -153 -210 -41 -58 -78 -109 -83 -115 -24 -29 -83 -114 -83 -119 0
-3 1220 -6 2710 -6 1491 0 2710 3 2710 7 0 7 -48 78 -206 303 -88 126 -816
1181 -928 1345 -23 33 -44 64 -49 70 -4 5 -26 37 -49 70 -23 33 -106 155 -186
270 -80 116 -169 244 -198 286 -28 42 -94 136 -145 210 -124 179 -199 288
-265 384 -31 44 -85 123 -122 176 -37 53 -87 125 -111 160 -24 35 -67 98 -96
139 -29 41 -163 237 -300 435 -310 450 -341 491 -442 591 -137 135 -304 232
-474 275 -93 23 -355 35 -440 19z m917 -3849 c18 -11 52 -48 76 -83 122 -172
391 -564 395 -575 4 -10 -77 -13 -386 -13 -215 0 -391 2 -391 5 0 8 112 158
125 168 5 4 71 7 145 6 74 -1 134 1 133 5 -6 20 -170 255 -178 255 -9 1 -33
-31 -235 -319 l-84 -120 -123 0 c-68 0 -123 2 -123 4 0 3 60 89 134 193 74
103 150 210 168 236 93 134 156 214 187 234 43 29 113 31 157 4z m2080 0 c19
-11 74 -80 132 -163 236 -339 335 -484 339 -495 4 -10 -77 -13 -386 -13 -215
0 -391 2 -391 5 0 7 112 158 125 168 5 4 72 6 148 5 75 -2 136 -1 135 2 -15
31 -176 259 -183 260 -6 0 -42 -45 -80 -101 -39 -55 -86 -122 -105 -149 -19
-27 -57 -81 -85 -119 l-49 -71 -123 0 c-68 0 -123 2 -123 4 0 4 296 423 397
561 32 44 73 90 92 102 43 29 113 31 157 4z m-2726 2 c-1 -5 -29 -44 -63 -88
l-63 -80 -209 -5 c-233 -6 -251 -10 -299 -73 -37 -49 -37 -133 0 -177 57 -67
74 -70 370 -70 237 0 265 -2 260 -16 -3 -8 -32 -49 -63 -90 l-57 -74 -201 0
c-146 0 -217 4 -258 15 -162 42 -268 147 -287 282 -24 183 84 326 280 369 61
14 590 19 590 7z m2058 -2 c-1 -4 -30 -44 -63 -89 l-60 -81 -260 0 c-189 -1
-264 -4 -273 -13 -16 -16 -15 -55 1 -65 6 -4 127 -11 267 -14 284 -6 315 -12
371 -68 60 -60 63 -165 7 -247 -29 -43 -78 -70 -152 -83 -68 -13 -726 -15
-726 -3 0 4 29 45 65 90 l65 82 278 0 c203 0 281 3 290 12 16 16 15 53 0 66
-8 6 -114 12 -263 15 -266 5 -304 10 -356 54 -41 35 -59 79 -59 148 0 98 51
162 155 192 47 13 719 18 713 4z"/>
<path d="M2400 2994 c-120 -32 -229 -125 -288 -242 -36 -74 -37 -78 -40 -214
l-4 -138 -74 0 c-53 0 -74 -4 -74 -12 0 -7 10 -52 22 -100 l22 -87 50 -3 51
-3 3 -227 2 -228 100 0 100 0 0 230 0 230 253 -2 252 -3 3 -227 2 -228 101 0
100 0 -3 463 -3 462 -38 79 c-98 207 -318 309 -537 250z m238 -213 c20 -11 51
-34 68 -53 57 -60 68 -93 72 -215 l4 -113 -256 0 -256 0 0 108 c1 141 20 187
110 254 19 15 51 31 70 37 48 14 142 5 188 -18z"/>
<path d="M3240 2370 l0 -631 103 3 102 3 5 363 c5 360 5 362 24 340 20 -23
254 -283 337 -373 25 -27 66 -72 90 -100 54 -61 47 -53 149 -165 47 -51 87
-96 88 -101 18 -47 22 64 22 621 l0 630 -100 0 -100 0 0 -365 c0 -201 -3 -365
-6 -365 -3 0 -27 24 -52 52 -26 29 -74 82 -107 118 -33 36 -98 108 -145 160
-47 52 -108 120 -136 150 -105 115 -143 157 -199 220 -31 36 -61 67 -66 68 -5
2 -9 -254 -9 -628z"/>
<path d="M1380 2941 c-110 -30 -185 -75 -274 -164 -132 -134 -181 -262 -174
-457 5 -126 30 -205 94 -302 79 -118 187 -202 324 -249 93 -32 266 -33 365 -2
78 25 175 79 220 124 l30 29 -69 69 -68 68 -64 -43 c-98 -66 -189 -85 -296
-64 -131 25 -250 118 -306 237 -24 52 -27 69 -27 168 0 104 2 113 32 172 81
155 238 244 406 230 72 -6 156 -39 213 -82 18 -14 36 -25 41 -25 12 0 133 123
133 135 -1 16 -120 102 -173 124 -125 54 -283 66 -407 32z"/>
<path d="M4470 2349 l0 -611 313 4 c345 5 365 8 483 74 126 69 235 196 282
327 20 56 27 96 30 182 5 126 -10 200 -61 305 -46 94 -168 215 -267 263 -128
63 -160 67 -487 67 l-293 0 0 -611z m605 397 c118 -31 216 -113 269 -225 29
-61 31 -74 31 -171 0 -93 -3 -112 -27 -162 -31 -67 -100 -145 -167 -187 -76
-49 -143 -61 -338 -61 l-173 0 0 410 0 410 178 0 c116 0 194 -5 227 -14z"/>
<path d="M5750 2350 l0 -611 98 3 97 3 3 608 2 607 -100 0 -100 0 0 -610z"/>
<path d="M6257 2954 c-9 -9 -9 -1035 -1 -1136 l7 -80 311 4 c293 4 315 5 376
27 183 64 330 207 391 381 20 55 23 85 24 195 0 139 -9 183 -63 295 -39 79
-169 207 -257 252 -121 62 -165 68 -491 68 -160 0 -294 -3 -297 -6z m675 -232
c83 -41 159 -117 201 -201 30 -61 32 -73 32 -166 -1 -128 -24 -191 -101 -275
-109 -117 -188 -142 -442 -138 l-167 3 -3 385 c-1 212 0 396 3 409 l6 23 202
-3 202 -4 67 -33z"/>
<path d="M7925 2941 c-105 -29 -181 -75 -271 -165 -134 -134 -180 -256 -172
-456 4 -92 10 -128 31 -182 67 -173 215 -315 386 -368 324 -102 672 82 771
405 29 96 30 262 1 355 -55 176 -202 329 -387 400 -84 33 -260 38 -359 11z
m341 -225 c83 -42 148 -108 192 -196 25 -50 27 -65 27 -170 0 -110 -1 -118
-32 -177 -108 -206 -349 -288 -549 -187 -69 35 -157 127 -192 201 -24 52 -27
69 -27 168 0 102 3 114 30 170 39 77 115 154 189 190 77 37 115 45 210 40 66
-3 90 -9 152 -39z"/>
</g>
</svg>
